#!Matlab matrix to amc conversion
:FULLY-SPECIFIED
:DEGREES
61
root -0.640679 0.313119 23.600181 7.192556 6.668731 6.144744
lowerback -7.593933 -4.511082 -9.036180
upperback -1.499127 -5.356377 0.948759
thorax 3.544898 -2.763015 5.478413
lowerneck -22.025677 -1.844851 -11.568705
upperneck 28.650873 -1.880136 10.957679
head 13.606460 -0.592526 6.067887
rclavicle 0.000000 -0.000000
rhumerus -53.854751 15.407799 -91.950778
rradius 31.585499
rwrist -18.354053
rhand -28.856200 -18.800500
rfingers 7.125020
rthumb -2.212790 -48.768800
lclavicle 0.000000 -0.000000
lhumerus -2.629572 -24.131094 83.631573
lradius 38.779989
lwrist 11.062300
lhand -19.668800 -28.799300
lfingers 7.125020
lthumb 6.659510 1.076010
rfemur -43.256435 4.862315 9.671681
rtibia 23.281328
rfoot -24.909216 -6.317713
rtoes -20.766800
lfemur 12.875357 3.829012 -29.001879
ltibia 3.347756
lfoot -17.769344 -4.533187
ltoes -22.051700
62
root -0.673845 0.253705 24.030315 7.078529 6.472814 6.125846
lowerback -7.627430 -4.507776 -8.958069
upperback -1.457260 -5.337346 0.976117
thorax 3.619083 -2.761187 5.451310
lowerneck -22.192405 -1.850018 -11.606024
upperneck 28.650611 -1.853293 10.944841
head 13.633103 -0.582680 6.077091
rclavicle 0.000000 -0.000000
rhumerus -53.520706 13.683881 -90.523528
rradius 29.415561
rwrist -16.143099
rhand -28.856200 -18.800500
rfingers 7.125020
rthumb -2.212790 -48.768800
lclavicle 0.000000 -0.000000
lhumerus -2.052590 -22.640961 83.293268
lradius 40.157713
lwrist 11.607338
lhand -19.668800 -28.799300
lfingers 7.125020
lthumb 6.659510 1.076010
rfemur -43.329346 4.511482 10.265100
rtibia 23.986188
rfoot -23.360428 -5.154817
rtoes -20.766800
lfemur 14.889469 4.610028 -28.230647
ltibia 2.929331
lfoot -17.415083 -5.671326
ltoes -22.051700
63
root -0.707652 0.195744 24.473869 6.816549 6.133300 5.979957
lowerback -7.617092 -4.500368 -8.802181
upperback -1.433787 -5.325529 1.058704
thorax 3.643979 -2.760157 5.442043
lowerneck -22.389570 -1.765678 -11.566147
upperneck 28.808964 -1.685518 10.794091
head 13.711006 -0.524029 6.049977
rclavicle 0.000000 -0.000000
rhumerus -53.067425 11.609625 -88.698084
rradius 26.871141
rwrist -13.054155
rhand -28.856200 -18.800500
rfingers 7.125020
rthumb -2.212790 -48.768800
lclavicle 0.000000 -0.000000
lhumerus -2.013359 -21.273708 83.133891
lradius 41.674379
lwrist 12.357672
lhand -19.668800 -28.799300
lfingers 7.125020
lthumb 6.659510 1.076010
rfemur -42.921685 3.552319 11.600799
rtibia 25.175844
rfoot -20.510114 -3.556792
rtoes -20.766800
lfemur 17.221933 5.492424 -27.257790
ltibia 2.423606
lfoot -16.374584 -6.928411
ltoes -22.051700
64
root -0.742412 0.144673 24.932715 6.452978 5.758016 5.797086
lowerback -7.571778 -4.523278 -8.671590
upperback -1.448962 -5.361382 1.189362
thorax 3.614330 -2.779701 5.497670
lowerneck -22.568496 -1.595635 -11.503332
upperneck 29.090000 -1.381131 10.557709
head 13.817593 -0.417741 6.014086
rclavicle 0.000000 -0.000000
rhumerus -52.687136 9.459102 -86.617328
rradius 24.349634
rwrist -9.398438
rhand -28.856200 -18.800500
rfingers 7.125020
rthumb -2.212790 -48.768800
lclavicle 0.000000 -0.000000
lhumerus -2.479790 -20.157553 83.140493
lradius 43.289480
lwrist 13.296310
lhand -19.668800 -28.799300
lfingers 7.125020
lthumb 6.659510 1.076010
rfemur -42.159637 2.019490 13.409333
rtibia 26.659278
rfoot -16.753430 -1.525987
rtoes -20.766800
lfemur 19.688889 6.403387 -26.225199
ltibia 1.943705
lfoot -14.657074 -8.050772
ltoes -22.051700
65
root -0.779213 0.106321 25.406553 6.042348 5.401925 5.596195
lowerback -7.471326 -4.569505 -8.565990
upperback -1.502352 -5.436959 1.360200
thorax 3.518738 -2.815498 5.612594
lowerneck -22.708761 -1.376031 -11.454704
upperneck 29.384394 -0.997011 10.304249
head 13.912421 -0.281852 5.987614
rclavicle 0.000000 -0.000000
rhumerus -52.344899 7.226416 -84.256610
rradius 22.035746
rwrist -5.334324
rhand -28.856200 -18.800500
rfingers 7.125020
rthumb -2.212790 -48.768800
lclavicle 0.000000 -0.000000
lhumerus -3.463009 -19.331037 83.348837
lradius 44.943492
lwrist 14.386043
lhand -19.668800 -28.799300
lfingers 7.125020
lthumb 6.659510 1.076010
rfemur -41.136756 0.134769 15.458757
rtibia 28.332136
rfoot -12.434033 0.740023
rtoes -20.766800
lfemur 22.149483 7.266166 -25.188861
ltibia 1.427919
lfoot -12.093530 -8.753045
ltoes -22.051700
66
root -0.819027 0.086037 25.893518 5.620826 5.064216 5.339642
lowerback -7.300208 -4.611756 -8.422039
upperback -1.579134 -5.521150 1.566754
thorax 3.355732 -2.851733 5.751651
lowerneck -22.813020 -1.140456 -11.424044
upperneck 29.598565 -0.590283 10.078479
head 13.965330 -0.133809 5.974254
rclavicle 0.000000 -0.000000
rhumerus -51.909840 4.628605 -81.408555
rradius 19.868340
rwrist -0.714664
rhand -28.856200 -18.800500
rfingers 7.125020
rthumb -2.212790 -48.768800
lclavicle 0.000000 -0.000000
lhumerus -5.033525 -18.815719 83.830084
lradius 46.606622
lwrist 15.645777
lhand -19.668800 -28.799300
lfingers 7.125020
lthumb 6.659510 1.076010
rfemur -39.892217 -1.845962 17.635060
rtibia 30.200659
rfoot -7.795177 3.030828
rtoes -20.766800
lfemur 24.530645 8.050094 -24.119388
ltibia 0.848853
lfoot -8.313896 -8.740278
ltoes -22.051700
67
root -0.862477 0.088608 26.390592 5.214852 4.740195 4.983952
lowerback -7.056319 -4.631180 -8.182276
upperback -1.668630 -5.593231 1.811800
thorax 3.128728 -2.877755 5.888723
lowerneck -22.879108 -0.906987 -11.410160
upperneck 29.689789 -0.195412 9.908764
head 13.962746 0.016114 5.976881
rclavicle 0.000000 -0.000000
rhumerus -51.316337 1.353927 -77.828145
rradius 17.770657
rwrist 4.705252
rhand -28.856200 -18.800500
rfingers 7.125020
rthumb -2.212790 -48.768800
lclavicle 0.000000 -0.000000
lhumerus -7.289361 -18.640721 84.660199
lradius 48.258501
lwrist 17.117910
lhand -19.668800 -28.799300
lfingers 7.125020
lthumb 6.659510 1.076010
rfemur -38.464122 -3.746059 19.869148
rtibia 32.330770
rfoot -3.132119 5.252301
rtoes -20.766800
lfemur 26.675407 8.753735 -22.961881
ltibia 0.470117
lfoot -2.903877 -7.627021
ltoes -22.051700
68
root -0.910163 0.118465 26.893108 4.866533 4.455906 4.502726
lowerback -6.738691 -4.626340 -7.817299
upperback -1.774557 -5.652688 2.107809
thorax 2.833195 -2.893058 6.020620
lowerneck -22.890861 -0.691409 -11.433201
upperneck 29.644626 0.158620 9.832998
head 13.899774 0.158166 6.008528
rclavicle 0.000000 -0.000000
rhumerus -50.609386 -2.715327 -73.406760
rradius 15.842122
rwrist 10.921858
rhand -28.856200 -18.800500
rfingers 7.125020
rthumb -2.212790 -48.768800
lclavicle 0.000000 -0.000000
lhumerus -10.282300 -18.798135 85.884934
lradius 49.830209
lwrist 18.770668
lhand -19.668800 -28.799300
lfingers 7.125020
lthumb 6.659510 1.076010
rfemur -36.961602 -5.433389 22.023419
rtibia 34.751361
rfoot 1.027281 7.387187
rtoes -20.766800
lfemur 28.184974 9.350872 -21.674037
ltibia 0.962078
lfoot 4.331659 -4.903834
ltoes -22.051700
69
root -0.962932 0.179057 27.393758 4.642548 4.261221 3.871184
lowerback -6.344232 -4.599582 -7.299009
upperback -1.903891 -5.700961 2.468475
thorax 2.462481 -2.898777 6.144046
lowerneck -22.838992 -0.531281 -11.524419
upperneck 29.453367 0.410981 9.903726
head 13.778618 0.269665 6.085063
rclavicle 0.000000 -0.000000
rhumerus -49.885217 -7.375034 -68.369032
rradius 14.356496
rwrist 17.370090
rhand -28.856200 -18.800500
rfingers 7.125020
rthumb -2.212790 -48.768800
lclavicle 0.000000 -0.000000
lhumerus -13.875662 -19.191043 87.466476
lradius 51.127616
lwrist 20.384946
lhand -19.668800 -28.799300
lfingers 7.125020
lthumb 6.659510 1.076010
rfemur -35.588074 -6.690866 23.845352
rtibia 37.321683
rfoot 3.828825 9.319065
rtoes -20.766800
lfemur 28.366837 9.755692 -20.231207
ltibia 3.348976
lfoot 12.964125 -0.148372
ltoes -22.051700
70
root -1.021451 0.270451 27.882258 4.589299 4.188360 3.034486
lowerback -5.906246 -4.524817 -6.558310
upperback -2.026683 -5.699016 2.875866
thorax 2.057794 -2.877757 6.199049
lowerneck -22.742325 -0.494267 -11.666954
upperneck 29.137388 0.449104 10.141893
head 13.625741 0.306436 6.194124
rclavicle 0.000000 -0.000000
rhumerus -49.184300 -12.197738 -63.346924
rradius 13.463980
rwrist 23.077552
rhand -28.856200 -18.800500
rfingers 7.125020
rthumb -2.212790 -48.768800
lclavicle 0.000000 -0.000000
lhumerus -17.611875 -19.684925 89.239590
lradius 51.805951
lwrist 21.554640
lhand -19.668800 -28.799300
lfingers 7.125020
lthumb 6.659510 1.076010
rfemur -34.461623 -7.223592 25.145244
rtibia 39.642627
rfoot 4.352791 10.748958
rtoes -20.766800
lfemur 26.455484 9.913199 -18.602887
ltibia 8.702103
lfoot 21.724686 6.511345
ltoes -22.051700
71
root -1.084791 0.386645 28.347342 4.670103 4.250307 1.969087
lowerback -5.513552 -4.362731 -5.574658
upperback -2.093668 -5.584683 3.281504
thorax 1.706183 -2.802607 6.119589
lowerneck -22.596329 -0.627231 -11.810271
upperneck 28.801108 0.196603 10.490699
head 13.493092 0.230551 6.296124
rclavicle 0.000000 -0.000000
rhumerus -48.505573 -16.682791 -59.100241
rradius 13.061075
rwrist 27.354918
rhand -28.856200 -18.800500
rfingers 7.125020
rthumb -2.212790 -48.768800
lclavicle 0.000000 -0.000000
lhumerus -20.999207 -20.299435 91.052438
lradius 51.595113
lwrist 22.033505
lhand -19.668800 -28.799300
lfingers 7.125020
lthumb 6.659510 1.076010
rfemur -33.292653 -7.114354 26.076359
rtibia 41.183718
rfoot 2.473576 11.657750
rtoes -20.766800
lfemur 22.125619 9.917212 -16.763920
ltibia 17.486576
lfoot 29.354749 14.556607
ltoes -22.051700
